<?xml version="1.0" encoding="utf-8"?>
<!-- Generator: Adobe Illustrator 27.0.0, SVG Export Plug-In . SVG Version: 6.00 Build 0)  -->
<svg version="1.1" id="Слой_1" xmlns="http://www.w3.org/2000/svg" xmlns:xlink="http://www.w3.org/1999/xlink" x="0px" y="0px"
	 viewBox="0 0 24 24" style="enable-background:new 0 0 24 24;" xml:space="preserve">
<style type="text/css">
	.st0{fill-rule:evenodd;clip-rule:evenodd;}
</style>
<path d="M4.4,16.5c0-0.6,0.5-1.1,1.1-1.1h2.2c0.6,0,1.1,0.5,1.1,1.1c0,0.6-0.5,1.1-1.1,1.1H5.5C4.9,17.6,4.4,17.1,4.4,16.5z"/>
<path d="M10.9,15.5c-0.6,0-1.1,0.5-1.1,1.1c0,0.6,0.5,1.1,1.1,1.1H12c0.6,0,1.1-0.5,1.1-1.1c0-0.6-0.5-1.1-1.1-1.1H10.9z"/>
<path class="st0" d="M6.4,2.5c-0.9,0-1.6,0-2.2,0C3.5,2.6,3,2.7,2.4,3C1.7,3.4,1,4,0.6,4.8C0.3,5.4,0.2,5.9,0.2,6.5
	c0,0.6,0,1.3,0,2.2v6.9c0,0.9,0,1.6,0,2.2c0.1,0.6,0.2,1.2,0.4,1.7C1,20.4,1.7,21,2.4,21.5c0.5,0.3,1.1,0.4,1.7,0.4
	c0.6,0,1.3,0,2.2,0h11.3c0.9,0,1.6,0,2.2,0c0.6-0.1,1.2-0.2,1.7-0.4c0.8-0.4,1.4-1.1,1.8-1.8c0.3-0.5,0.4-1.1,0.4-1.7
	c0-0.6,0-1.3,0-2.2V8.8c0-0.9,0-1.6,0-2.2c-0.1-0.6-0.2-1.2-0.4-1.7C23,4,22.3,3.4,21.6,3c-0.5-0.3-1.1-0.4-1.7-0.4
	c-0.6,0-1.3,0-2.2,0H6.4z M3.4,4.9c0.2-0.1,0.4-0.2,0.9-0.2c0.5,0,1.1,0,2.1,0h11.2c0.9,0,1.6,0,2.1,0c0.5,0,0.7,0.1,0.9,0.2
	c0.4,0.2,0.7,0.5,0.9,0.9c0.1,0.2,0.2,0.4,0.2,0.9c0,0.3,0,0.7,0,1.2H2.3c0-0.5,0-0.9,0-1.2c0-0.5,0.1-0.7,0.2-0.9
	C2.7,5.4,3,5.1,3.4,4.9z M2.3,10.1v5.6c0,0.9,0,1.6,0,2.1c0,0.5,0.1,0.7,0.2,0.9C2.7,19,3,19.3,3.4,19.5c0.2,0.1,0.4,0.2,0.9,0.2
	c0.5,0,1.1,0,2.1,0h11.2c0.9,0,1.6,0,2.1,0c0.5,0,0.7-0.1,0.9-0.2c0.4-0.2,0.7-0.5,0.9-0.9c0.1-0.2,0.2-0.4,0.2-0.9
	c0-0.5,0-1.1,0-2.1v-5.6H2.3z"/>
</svg>
