<?xml version="1.0" encoding="utf-8"?>
<!-- Generator: Adobe Illustrator 27.0.0, SVG Export Plug-In . SVG Version: 6.00 Build 0)  -->
<svg version="1.1" id="icon" xmlns="http://www.w3.org/2000/svg" xmlns:xlink="http://www.w3.org/1999/xlink" x="0px" y="0px"
	 viewBox="0 0 24 24" style="enable-background:new 0 0 24 24;" xml:space="preserve">
<style type="text/css">
	.st0{fill:none;}
</style>
<path d="M23.8,12.5l-2.5-5.9c-0.1-0.3-0.4-0.5-0.8-0.5h-2.5V4.4c0-0.5-0.4-0.8-0.8-0.8H1c-0.5,0-0.8,0.4-0.8,0.8v14.4
	c0,0.5,0.4,0.8,0.8,0.8h1.8C3.3,21.4,5.2,22.5,7,22c1.2-0.3,2.1-1.2,2.4-2.4h5.3c0.5,1.8,2.4,2.9,4.2,2.4c1.2-0.3,2.1-1.2,2.4-2.4
	H23c0.5,0,0.8-0.4,0.8-0.8v-5.9C23.9,12.7,23.8,12.6,23.8,12.5z M17.9,7.8h2l1.8,4.2h-3.8V7.8z M6.1,20.5c-0.9,0-1.7-0.8-1.7-1.7
	c0-0.9,0.8-1.7,1.7-1.7s1.7,0.8,1.7,1.7C7.8,19.7,7,20.5,6.1,20.5z M14.7,17.9H9.3c-0.5-1.8-2.4-2.9-4.2-2.4
	c-1.2,0.3-2.1,1.2-2.4,2.4h-1V5.2h14.4v10.6C15.5,16.3,14.9,17.1,14.7,17.9z M17.9,20.5c-0.9,0-1.7-0.8-1.7-1.7
	c0-0.9,0.8-1.7,1.7-1.7s1.7,0.8,1.7,1.7C19.6,19.7,18.9,20.5,17.9,20.5z M22.2,17.9h-1c-0.4-1.5-1.7-2.5-3.3-2.5v-1.7h4.2V17.9z"/>
<rect id="_Transparent_Rectangle_" x="-1.6" y="-1.6" class="st0" width="27.1" height="27.1"/>
</svg>
