<?xml version="1.0" encoding="utf-8"?>
<!-- Generator: Adobe Illustrator 27.0.0, SVG Export Plug-In . SVG Version: 6.00 Build 0)  -->
<svg version="1.1" id="Слой_1" xmlns="http://www.w3.org/2000/svg" xmlns:xlink="http://www.w3.org/1999/xlink" x="0px" y="0px"
	 viewBox="0 0 24 24" style="enable-background:new 0 0 24 24;" xml:space="preserve">
<g id="Layer_9">
	<path d="M20.4,4.4L17,1.1c-0.5-0.6-1.3-0.9-2.1-0.9H6c-1.6,0-2.9,1.3-2.9,2.9v17.7c0,1.6,1.3,2.9,2.9,2.9h12.3
		c1.6,0,2.9-1.3,2.9-2.9V6.5C21.3,5.7,20.9,5,20.4,4.4z M19.1,5.6h-3.3V2.4L19.1,5.6z M19.4,20.9c0,0.6-0.5,1.1-1.1,1.1H6
		c-0.6,0-1.1-0.5-1.1-1.1V3.1C4.9,2.5,5.4,2,6,2h8v4.5c0,0.5,0.4,0.9,0.9,0.9h4.5V20.9z"/>
	<path d="M9.5,12.3c-0.4-0.4-0.9-0.4-1.3,0s-0.4,0.9,0,1.3l2.3,2.3c0.4,0.4,0.9,0.4,1.3,0c0,0,0,0,0,0l4.5-4.5c0.4-0.4,0.3-1,0-1.3
		c-0.4-0.4-1-0.3-1.3,0L11,13.9L9.5,12.3z"/>
</g>
</svg>
