<?xml version="1.0" encoding="utf-8"?>
<!-- Generator: Adobe Illustrator 27.0.0, SVG Export Plug-In . SVG Version: 6.00 Build 0)  -->
<svg version="1.1" id="Слой_1" xmlns="http://www.w3.org/2000/svg" xmlns:xlink="http://www.w3.org/1999/xlink" x="0px" y="0px"
	 viewBox="0 0 24 24" style="enable-background:new 0 0 24 24;" xml:space="preserve">
<path d="M22.4,18.7l-6.5-3.1c0.9-0.4,4.2-0.6,4.5-1.3c0,0-1.3-2-1.7-4.7c-0.1-1-0.3-2.4-0.6-4.3c-0.3-3.1-2.9-5.2-6.2-5.2h0
	c-3.3,0-5.9,2.2-6.2,5.2C5.6,7.3,5.4,8.6,5.2,9.7c-0.3,2.6-1.7,4.7-1.7,4.7c0.3,0.8,3.6,0.9,4.5,1.3l-6.5,3.1c0,0-1.5,0.5-1.5,1.7v2
	c0,0.8,0.7,1.4,1.5,1.4h20.8c0.8,0,1.5-0.6,1.5-1.4v-2C23.9,19.3,22.4,18.7,22.4,18.7L22.4,18.7z M1.6,22.4v-1.9
	c0-0.1,0.3-0.3,0.5-0.4c0,0,0.1,0,0.1-0.1L8.7,17c0.5-0.2,0.8-0.8,0.8-1.3c0-0.6-0.3-1.1-0.8-1.3c-0.5-0.3-1.2-0.4-2.2-0.6
	c-0.2,0-0.6-0.1-0.9-0.2c0.4-1,0.9-2.3,1.1-3.8c0-0.4,0.1-0.8,0.2-1.3c0.1-0.8,0.3-1.8,0.4-3C7.5,3.3,9.5,1.6,12,1.6h0
	c2.5,0,4.5,1.6,4.7,3.9c0.1,1.2,0.3,2.2,0.4,3c0.1,0.5,0.1,0.9,0.2,1.3c0.2,1.5,0.7,2.8,1.1,3.8c-0.3,0.1-0.7,0.1-0.9,0.2
	c-1,0.2-1.7,0.3-2.2,0.6c-0.5,0.3-0.8,0.8-0.8,1.3c0,0.6,0.3,1.1,0.8,1.3l6.5,3.1c0,0,0.1,0,0.1,0.1c0.2,0.1,0.5,0.3,0.5,0.4l0,1.9
	L1.6,22.4L1.6,22.4z"/>
</svg>
